<svg xmlns="http://www.w3.org/2000/svg" width="64" height="64" viewBox="0 0 64 64" shape-rendering="crispEdges">
  <rect x="0" y="0" width="16" height="16" fill="#3e5e3a"/>
  <rect x="3" y="4" width="2" height="2" fill="#46693f"/>
  <rect x="10" y="9" width="2" height="2" fill="#46693f"/>
  <rect x="12" y="3" width="1" height="1" fill="#365230"/>
  <rect x="5" y="12" width="1" height="1" fill="#365230"/>
  <rect x="16" y="0" width="16" height="16" fill="#2f4a2c"/>
  <rect x="18" y="4" width="1" height="8" fill="#3a5a34"/>
  <rect x="19" y="7" width="1" height="5" fill="#25401f"/>
  <rect x="22" y="4" width="1" height="8" fill="#3a5a34"/>
  <rect x="23" y="7" width="1" height="5" fill="#25401f"/>
  <rect x="26" y="4" width="1" height="8" fill="#3a5a34"/>
  <rect x="27" y="7" width="1" height="5" fill="#25401f"/>
  <rect x="29" y="4" width="1" height="8" fill="#3a5a34"/>
  <rect x="30" y="7" width="1" height="5" fill="#25401f"/>
  <rect x="32" y="0" width="16" height="16" fill="#6e5d44"/>
  <rect x="34" y="3" width="2" height="1" fill="#7d6a4e"/>
  <rect x="41" y="6" width="2" height="1" fill="#7d6a4e"/>
  <rect x="37" y="11" width="2" height="1" fill="#5f5039"/>
  <rect x="44" y="12" width="1" height="1" fill="#5f5039"/>
  <rect x="48" y="0" width="16" height="16" fill="#b3a06a"/>
  <rect x="51" y="5" width="2" height="1" fill="#c2b07a"/>
  <rect x="58" y="4" width="1" height="1" fill="#c2b07a"/>
  <rect x="55" y="11" width="2" height="1" fill="#a3915d"/>
  <rect x="0" y="16" width="16" height="16" fill="#2f4d6e"/>
  <rect x="1" y="20" width="7" height="1" fill="#3c5d82"/>
  <rect x="9" y="25" width="6" height="1" fill="#3c5d82"/>
  <rect x="4" y="28" width="5" height="1" fill="#284461"/>
  <rect x="16" y="16" width="16" height="16" fill="#3e5e3a"/>
  <rect x="19" y="20" width="2" height="2" fill="#46693f"/>
  <rect x="26" y="25" width="2" height="2" fill="#46693f"/>
  <rect x="28" y="19" width="1" height="1" fill="#365230"/>
  <rect x="21" y="28" width="1" height="1" fill="#365230"/>
  <rect x="23" y="27" width="2" height="4" fill="#3b2a1d"/>
  <rect x="18" y="17" width="12" height="11" fill="#243a20"/>
  <rect x="19" y="18" width="4" height="3" fill="#2f4a29"/>
  <rect x="25" y="22" width="4" height="3" fill="#1c2f18"/>
  <rect x="32" y="16" width="16" height="16" fill="#3e5e3a"/>
  <rect x="35" y="20" width="2" height="2" fill="#46693f"/>
  <rect x="42" y="25" width="2" height="2" fill="#46693f"/>
  <rect x="44" y="19" width="1" height="1" fill="#365230"/>
  <rect x="37" y="28" width="1" height="1" fill="#365230"/>
  <rect x="35" y="22" width="10" height="8" fill="#565c62"/>
  <rect x="37" y="20" width="6" height="3" fill="#565c62"/>
  <rect x="36" y="21" width="3" height="2" fill="#6c727a"/>
  <rect x="41" y="26" width="3" height="3" fill="#3f444a"/>
  <rect x="48" y="16" width="16" height="16" fill="#3e5e3a"/>
  <rect x="51" y="20" width="2" height="2" fill="#46693f"/>
  <rect x="58" y="25" width="2" height="2" fill="#46693f"/>
  <rect x="60" y="19" width="1" height="1" fill="#365230"/>
  <rect x="53" y="28" width="1" height="1" fill="#365230"/>
  <rect x="51" y="20" width="2" height="2" fill="#8a4a4a"/>
  <rect x="51" y="22" width="2" height="1" fill="#2f4a2c"/>
  <rect x="58" y="22" width="2" height="2" fill="#6a4a7a"/>
  <rect x="58" y="24" width="2" height="1" fill="#2f4a2c"/>
  <rect x="54" y="27" width="2" height="2" fill="#9a7a3a"/>
  <rect x="54" y="29" width="2" height="1" fill="#2f4a2c"/>
  <rect x="0" y="32" width="16" height="16" fill="#4a3a2c"/>
  <rect x="0" y="36" width="16" height="1" fill="#3a2d22"/>
  <rect x="0" y="40" width="16" height="1" fill="#3a2d22"/>
  <rect x="0" y="44" width="16" height="1" fill="#3a2d22"/>
  <rect x="3" y="34" width="2" height="1" fill="#564434"/>
  <rect x="11" y="38" width="2" height="1" fill="#564434"/>
  <rect x="6" y="42" width="2" height="1" fill="#564434"/>
  <rect x="16" y="32" width="16" height="16" fill="#4a4a58"/>
  <rect x="16" y="37" width="16" height="1" fill="#3c3c48"/>
  <rect x="16" y="42" width="16" height="1" fill="#3c3c48"/>
  <rect x="16" y="32" width="16" height="2" fill="#585868"/>
  <rect x="20" y="38" width="2" height="1" fill="#585868"/>
  <rect x="26" y="44" width="2" height="1" fill="#585868"/>
  <rect x="32" y="32" width="16" height="16" fill="#4a3a2c"/>
  <rect x="32" y="36" width="16" height="1" fill="#3a2d22"/>
  <rect x="32" y="40" width="16" height="1" fill="#3a2d22"/>
  <rect x="32" y="44" width="16" height="1" fill="#3a2d22"/>
  <rect x="35" y="34" width="2" height="1" fill="#564434"/>
  <rect x="43" y="38" width="2" height="1" fill="#564434"/>
  <rect x="38" y="42" width="2" height="1" fill="#564434"/>
  <rect x="35" y="34" width="10" height="14" fill="#2c2018"/>
  <rect x="36" y="35" width="8" height="13" fill="#4a3826"/>
  <rect x="37" y="36" width="2" height="10" fill="#54402c"/>
  <rect x="41" y="36" width="2" height="10" fill="#54402c"/>
  <rect x="43" y="41" width="1" height="2" fill="#b09a50"/>
  <rect x="48" y="32" width="16" height="16" fill="#3e5e3a"/>
  <rect x="51" y="36" width="2" height="2" fill="#46693f"/>
  <rect x="58" y="41" width="2" height="2" fill="#46693f"/>
  <rect x="60" y="35" width="1" height="1" fill="#365230"/>
  <rect x="53" y="44" width="1" height="1" fill="#365230"/>
  <rect x="55" y="40" width="2" height="6" fill="#3b2a1d"/>
  <rect x="50" y="34" width="12" height="7" fill="#6a5232"/>
  <rect x="51" y="35" width="10" height="5" fill="#7a6240"/>
  <rect x="52" y="36" width="8" height="1" fill="#594830"/>
  <rect x="52" y="38" width="6" height="1" fill="#594830"/>
  <rect x="0" y="48" width="16" height="16" fill="#5e4a36"/>
  <rect x="0" y="52" width="16" height="1" fill="#4e3c2c"/>
  <rect x="0" y="56" width="16" height="1" fill="#4e3c2c"/>
  <rect x="0" y="60" width="16" height="1" fill="#4e3c2c"/>
  <rect x="5" y="49" width="1" height="3" fill="#4e3c2c"/>
  <rect x="11" y="53" width="1" height="3" fill="#4e3c2c"/>
  <rect x="3" y="57" width="1" height="3" fill="#4e3c2c"/>
  <rect x="9" y="61" width="1" height="3" fill="#4e3c2c"/>
  <rect x="16" y="48" width="16" height="16" fill="#3a3340"/>
  <rect x="21" y="48" width="1" height="13" fill="#423a4a"/>
  <rect x="27" y="48" width="1" height="13" fill="#423a4a"/>
  <rect x="16" y="61" width="16" height="3" fill="#2c2630"/>
  <rect x="32" y="48" width="16" height="16" fill="#5a3a3a"/>
  <rect x="33" y="49" width="14" height="1" fill="#7a4a4a"/>
  <rect x="33" y="62" width="14" height="1" fill="#7a4a4a"/>
  <rect x="33" y="49" width="1" height="14" fill="#7a4a4a"/>
  <rect x="46" y="49" width="1" height="14" fill="#7a4a4a"/>
  <rect x="38" y="54" width="4" height="4" fill="#6a4444"/>
  <rect x="39" y="55" width="2" height="2" fill="#7a5050"/>
  <rect x="48" y="48" width="16" height="16" fill="#5e4a36"/>
  <rect x="48" y="52" width="16" height="1" fill="#4e3c2c"/>
  <rect x="48" y="56" width="16" height="1" fill="#4e3c2c"/>
  <rect x="48" y="60" width="16" height="1" fill="#4e3c2c"/>
  <rect x="53" y="49" width="1" height="3" fill="#4e3c2c"/>
  <rect x="59" y="53" width="1" height="3" fill="#4e3c2c"/>
  <rect x="51" y="57" width="1" height="3" fill="#4e3c2c"/>
  <rect x="57" y="61" width="1" height="3" fill="#4e3c2c"/>
  <rect x="50" y="58" width="2" height="4" fill="#5a4430"/>
  <rect x="60" y="58" width="2" height="4" fill="#5a4430"/>
  <rect x="49" y="50" width="14" height="8" fill="#7a5c3e"/>
  <rect x="49" y="50" width="14" height="1" fill="#8a6c4a"/>
  <rect x="49" y="57" width="14" height="1" fill="#5a4430"/>
</svg>
