<svg xmlns="http://www.w3.org/2000/svg" width="64" height="16" viewBox="0 0 64 16" shape-rendering="crispEdges">
  <rect x="4" y="14" width="8" height="1" fill="#20242c"/>
  <rect x="3" y="3" width="10" height="12" fill="#1b2233"/>
  <rect x="4" y="4" width="8" height="10" fill="#5a7a4a"/>
  <rect x="5" y="4" width="6" height="3" fill="#6a8a55"/>
  <rect x="7" y="12" width="2" height="2" fill="#d6e0a0"/>
  <rect x="6" y="6" width="1" height="1" fill="#1b2233"/>
  <rect x="9" y="6" width="1" height="1" fill="#1b2233"/>
  <rect x="20" y="14" width="8" height="1" fill="#20242c"/>
  <rect x="19" y="3" width="10" height="12" fill="#1b2233"/>
  <rect x="20" y="4" width="8" height="10" fill="#5a7a4a"/>
  <rect x="21" y="4" width="6" height="3" fill="#6a8a55"/>
  <rect x="23" y="3" width="2" height="2" fill="#d6e0a0"/>
  <rect x="36" y="14" width="8" height="1" fill="#20242c"/>
  <rect x="35" y="3" width="10" height="12" fill="#1b2233"/>
  <rect x="36" y="4" width="8" height="10" fill="#5a7a4a"/>
  <rect x="37" y="4" width="6" height="3" fill="#6a8a55"/>
  <rect x="35" y="8" width="2" height="2" fill="#d6e0a0"/>
  <rect x="37" y="6" width="1" height="1" fill="#1b2233"/>
  <rect x="52" y="14" width="8" height="1" fill="#20242c"/>
  <rect x="51" y="3" width="10" height="12" fill="#1b2233"/>
  <rect x="52" y="4" width="8" height="10" fill="#5a7a4a"/>
  <rect x="53" y="4" width="6" height="3" fill="#6a8a55"/>
  <rect x="59" y="8" width="2" height="2" fill="#d6e0a0"/>
  <rect x="58" y="6" width="1" height="1" fill="#1b2233"/>
</svg>
