<svg xmlns="http://www.w3.org/2000/svg" width="48" height="48" viewBox="0 0 48 48" shape-rendering="crispEdges">
  <rect x="8" y="44" width="32" height="2" fill="#11161f"/>
  <rect x="19" y="13" width="10" height="1" fill="#2a5589"/>
  <rect x="17" y="14" width="14" height="1" fill="#2a5589"/>
  <rect x="15" y="15" width="18" height="1" fill="#2a5589"/>
  <rect x="14" y="16" width="20" height="1" fill="#2a5589"/>
  <rect x="13" y="17" width="22" height="1" fill="#2a5589"/>
  <rect x="12" y="18" width="24" height="1" fill="#2a5589"/>
  <rect x="12" y="19" width="24" height="1" fill="#2a5589"/>
  <rect x="11" y="20" width="26" height="1" fill="#2a5589"/>
  <rect x="11" y="21" width="26" height="1" fill="#2a5589"/>
  <rect x="10" y="22" width="28" height="1" fill="#2a5589"/>
  <rect x="10" y="23" width="28" height="1" fill="#2a5589"/>
  <rect x="10" y="24" width="28" height="1" fill="#2a5589"/>
  <rect x="10" y="25" width="28" height="1" fill="#2a5589"/>
  <rect x="10" y="26" width="28" height="1" fill="#2a5589"/>
  <rect x="9" y="27" width="30" height="1" fill="#2a5589"/>
  <rect x="10" y="28" width="28" height="1" fill="#2a5589"/>
  <rect x="10" y="29" width="28" height="1" fill="#2a5589"/>
  <rect x="10" y="30" width="28" height="1" fill="#2a5589"/>
  <rect x="10" y="31" width="28" height="1" fill="#2a5589"/>
  <rect x="10" y="32" width="28" height="1" fill="#2a5589"/>
  <rect x="11" y="33" width="26" height="1" fill="#2a5589"/>
  <rect x="11" y="34" width="26" height="1" fill="#2a5589"/>
  <rect x="12" y="35" width="24" height="1" fill="#2a5589"/>
  <rect x="12" y="36" width="24" height="1" fill="#2a5589"/>
  <rect x="13" y="37" width="22" height="1" fill="#2a5589"/>
  <rect x="14" y="38" width="20" height="1" fill="#2a5589"/>
  <rect x="15" y="39" width="18" height="1" fill="#2a5589"/>
  <rect x="17" y="40" width="14" height="1" fill="#2a5589"/>
  <rect x="19" y="41" width="10" height="1" fill="#2a5589"/>
  <rect x="19" y="14" width="10" height="1" fill="#3f7cc6"/>
  <rect x="17" y="15" width="14" height="1" fill="#3f7cc6"/>
  <rect x="16" y="16" width="16" height="1" fill="#3f7cc6"/>
  <rect x="15" y="17" width="18" height="1" fill="#3f7cc6"/>
  <rect x="14" y="18" width="20" height="1" fill="#3f7cc6"/>
  <rect x="13" y="19" width="22" height="1" fill="#3f7cc6"/>
  <rect x="12" y="20" width="24" height="1" fill="#3f7cc6"/>
  <rect x="12" y="21" width="24" height="1" fill="#3f7cc6"/>
  <rect x="11" y="22" width="26" height="1" fill="#3f7cc6"/>
  <rect x="11" y="23" width="26" height="1" fill="#3f7cc6"/>
  <rect x="11" y="24" width="26" height="1" fill="#3f7cc6"/>
  <rect x="11" y="25" width="26" height="1" fill="#3f7cc6"/>
  <rect x="11" y="26" width="26" height="1" fill="#3f7cc6"/>
  <rect x="10" y="27" width="28" height="1" fill="#3f7cc6"/>
  <rect x="11" y="28" width="26" height="1" fill="#3f7cc6"/>
  <rect x="11" y="29" width="26" height="1" fill="#3f7cc6"/>
  <rect x="11" y="30" width="26" height="1" fill="#3f7cc6"/>
  <rect x="11" y="31" width="26" height="1" fill="#3f7cc6"/>
  <rect x="11" y="32" width="26" height="1" fill="#3f7cc6"/>
  <rect x="12" y="33" width="24" height="1" fill="#3f7cc6"/>
  <rect x="12" y="34" width="24" height="1" fill="#3f7cc6"/>
  <rect x="13" y="35" width="22" height="1" fill="#3f7cc6"/>
  <rect x="14" y="36" width="20" height="1" fill="#3f7cc6"/>
  <rect x="15" y="37" width="18" height="1" fill="#3f7cc6"/>
  <rect x="16" y="38" width="16" height="1" fill="#3f7cc6"/>
  <rect x="17" y="39" width="14" height="1" fill="#3f7cc6"/>
  <rect x="19" y="40" width="10" height="1" fill="#3f7cc6"/>
  <rect x="21" y="28" width="6" height="1" fill="#9ac0e8"/>
  <rect x="20" y="29" width="8" height="1" fill="#9ac0e8"/>
  <rect x="19" y="30" width="10" height="1" fill="#9ac0e8"/>
  <rect x="18" y="31" width="12" height="1" fill="#9ac0e8"/>
  <rect x="18" y="32" width="12" height="1" fill="#9ac0e8"/>
  <rect x="18" y="33" width="12" height="1" fill="#9ac0e8"/>
  <rect x="17" y="34" width="14" height="1" fill="#9ac0e8"/>
  <rect x="18" y="35" width="12" height="1" fill="#9ac0e8"/>
  <rect x="18" y="36" width="12" height="1" fill="#9ac0e8"/>
  <rect x="18" y="37" width="12" height="1" fill="#9ac0e8"/>
  <rect x="19" y="38" width="10" height="1" fill="#9ac0e8"/>
  <rect x="20" y="39" width="8" height="1" fill="#9ac0e8"/>
  <rect x="21" y="40" width="6" height="1" fill="#9ac0e8"/>
  <rect x="19" y="22" width="2" height="3" fill="#f2f4f8"/>
  <rect x="19" y="23" width="1" height="1" fill="#1b2233"/>
  <rect x="27" y="22" width="2" height="3" fill="#f2f4f8"/>
  <rect x="27" y="23" width="1" height="1" fill="#1b2233"/>
  <rect x="23" y="30" width="3" height="1" fill="#2a5589"/>
  <rect x="23" y="8" width="2" height="4" fill="#9ac0e8"/>
  <rect x="38" y="25" width="4" height="5" fill="#9ac0e8"/>
</svg>
