<svg xmlns="http://www.w3.org/2000/svg" width="48" height="48" viewBox="0 0 48 48" shape-rendering="crispEdges">
  <rect x="5" y="44" width="38" height="2" fill="#11161f"/>
  <rect x="19" y="10" width="10" height="1" fill="#2a5589"/>
  <rect x="16" y="11" width="16" height="1" fill="#2a5589"/>
  <rect x="15" y="12" width="18" height="1" fill="#2a5589"/>
  <rect x="13" y="13" width="22" height="1" fill="#2a5589"/>
  <rect x="12" y="14" width="24" height="1" fill="#2a5589"/>
  <rect x="11" y="15" width="26" height="1" fill="#2a5589"/>
  <rect x="10" y="16" width="28" height="1" fill="#2a5589"/>
  <rect x="10" y="17" width="28" height="1" fill="#2a5589"/>
  <rect x="9" y="18" width="30" height="1" fill="#2a5589"/>
  <rect x="8" y="19" width="32" height="1" fill="#2a5589"/>
  <rect x="8" y="20" width="32" height="1" fill="#2a5589"/>
  <rect x="8" y="21" width="32" height="1" fill="#2a5589"/>
  <rect x="7" y="22" width="34" height="1" fill="#2a5589"/>
  <rect x="7" y="23" width="34" height="1" fill="#2a5589"/>
  <rect x="7" y="24" width="34" height="1" fill="#2a5589"/>
  <rect x="7" y="25" width="34" height="1" fill="#2a5589"/>
  <rect x="7" y="26" width="34" height="1" fill="#2a5589"/>
  <rect x="6" y="27" width="36" height="1" fill="#2a5589"/>
  <rect x="7" y="28" width="34" height="1" fill="#2a5589"/>
  <rect x="7" y="29" width="34" height="1" fill="#2a5589"/>
  <rect x="7" y="30" width="34" height="1" fill="#2a5589"/>
  <rect x="7" y="31" width="34" height="1" fill="#2a5589"/>
  <rect x="7" y="32" width="34" height="1" fill="#2a5589"/>
  <rect x="8" y="33" width="32" height="1" fill="#2a5589"/>
  <rect x="8" y="34" width="32" height="1" fill="#2a5589"/>
  <rect x="8" y="35" width="32" height="1" fill="#2a5589"/>
  <rect x="9" y="36" width="30" height="1" fill="#2a5589"/>
  <rect x="10" y="37" width="28" height="1" fill="#2a5589"/>
  <rect x="10" y="38" width="28" height="1" fill="#2a5589"/>
  <rect x="11" y="39" width="26" height="1" fill="#2a5589"/>
  <rect x="12" y="40" width="24" height="1" fill="#2a5589"/>
  <rect x="13" y="41" width="22" height="1" fill="#2a5589"/>
  <rect x="15" y="42" width="18" height="1" fill="#2a5589"/>
  <rect x="16" y="43" width="16" height="1" fill="#2a5589"/>
  <rect x="19" y="44" width="10" height="1" fill="#2a5589"/>
  <rect x="19" y="11" width="10" height="1" fill="#3f7cc6"/>
  <rect x="16" y="12" width="16" height="1" fill="#3f7cc6"/>
  <rect x="15" y="13" width="18" height="1" fill="#3f7cc6"/>
  <rect x="14" y="14" width="20" height="1" fill="#3f7cc6"/>
  <rect x="12" y="15" width="24" height="1" fill="#3f7cc6"/>
  <rect x="12" y="16" width="24" height="1" fill="#3f7cc6"/>
  <rect x="11" y="17" width="26" height="1" fill="#3f7cc6"/>
  <rect x="10" y="18" width="28" height="1" fill="#3f7cc6"/>
  <rect x="9" y="19" width="30" height="1" fill="#3f7cc6"/>
  <rect x="9" y="20" width="30" height="1" fill="#3f7cc6"/>
  <rect x="9" y="21" width="30" height="1" fill="#3f7cc6"/>
  <rect x="8" y="22" width="32" height="1" fill="#3f7cc6"/>
  <rect x="8" y="23" width="32" height="1" fill="#3f7cc6"/>
  <rect x="8" y="24" width="32" height="1" fill="#3f7cc6"/>
  <rect x="8" y="25" width="32" height="1" fill="#3f7cc6"/>
  <rect x="8" y="26" width="32" height="1" fill="#3f7cc6"/>
  <rect x="7" y="27" width="34" height="1" fill="#3f7cc6"/>
  <rect x="8" y="28" width="32" height="1" fill="#3f7cc6"/>
  <rect x="8" y="29" width="32" height="1" fill="#3f7cc6"/>
  <rect x="8" y="30" width="32" height="1" fill="#3f7cc6"/>
  <rect x="8" y="31" width="32" height="1" fill="#3f7cc6"/>
  <rect x="8" y="32" width="32" height="1" fill="#3f7cc6"/>
  <rect x="9" y="33" width="30" height="1" fill="#3f7cc6"/>
  <rect x="9" y="34" width="30" height="1" fill="#3f7cc6"/>
  <rect x="9" y="35" width="30" height="1" fill="#3f7cc6"/>
  <rect x="10" y="36" width="28" height="1" fill="#3f7cc6"/>
  <rect x="11" y="37" width="26" height="1" fill="#3f7cc6"/>
  <rect x="12" y="38" width="24" height="1" fill="#3f7cc6"/>
  <rect x="12" y="39" width="24" height="1" fill="#3f7cc6"/>
  <rect x="14" y="40" width="20" height="1" fill="#3f7cc6"/>
  <rect x="15" y="41" width="18" height="1" fill="#3f7cc6"/>
  <rect x="16" y="42" width="16" height="1" fill="#3f7cc6"/>
  <rect x="19" y="43" width="10" height="1" fill="#3f7cc6"/>
  <rect x="20" y="28" width="8" height="1" fill="#9ac0e8"/>
  <rect x="19" y="29" width="10" height="1" fill="#9ac0e8"/>
  <rect x="18" y="30" width="12" height="1" fill="#9ac0e8"/>
  <rect x="17" y="31" width="14" height="1" fill="#9ac0e8"/>
  <rect x="16" y="32" width="16" height="1" fill="#9ac0e8"/>
  <rect x="16" y="33" width="16" height="1" fill="#9ac0e8"/>
  <rect x="16" y="34" width="16" height="1" fill="#9ac0e8"/>
  <rect x="16" y="35" width="16" height="1" fill="#9ac0e8"/>
  <rect x="15" y="36" width="18" height="1" fill="#9ac0e8"/>
  <rect x="16" y="37" width="16" height="1" fill="#9ac0e8"/>
  <rect x="16" y="38" width="16" height="1" fill="#9ac0e8"/>
  <rect x="16" y="39" width="16" height="1" fill="#9ac0e8"/>
  <rect x="16" y="40" width="16" height="1" fill="#9ac0e8"/>
  <rect x="17" y="41" width="14" height="1" fill="#9ac0e8"/>
  <rect x="18" y="42" width="12" height="1" fill="#9ac0e8"/>
  <rect x="19" y="43" width="10" height="1" fill="#9ac0e8"/>
  <rect x="20" y="44" width="8" height="1" fill="#9ac0e8"/>
  <rect x="18" y="21" width="2" height="3" fill="#f2f4f8"/>
  <rect x="18" y="22" width="1" height="1" fill="#1b2233"/>
  <rect x="28" y="21" width="2" height="3" fill="#f2f4f8"/>
  <rect x="28" y="22" width="1" height="1" fill="#1b2233"/>
  <rect x="23" y="31" width="3" height="1" fill="#2a5589"/>
  <rect x="23" y="5" width="2" height="4" fill="#9ac0e8"/>
  <rect x="41" y="25" width="4" height="5" fill="#9ac0e8"/>
</svg>
