<svg xmlns="http://www.w3.org/2000/svg" width="48" height="48" viewBox="0 0 48 48" shape-rendering="crispEdges">
  <rect x="11" y="44" width="26" height="2" fill="#11161f"/>
  <rect x="20" y="16" width="8" height="1" fill="#9a8a30"/>
  <rect x="18" y="17" width="12" height="1" fill="#9a8a30"/>
  <rect x="17" y="18" width="14" height="1" fill="#9a8a30"/>
  <rect x="16" y="19" width="16" height="1" fill="#9a8a30"/>
  <rect x="15" y="20" width="18" height="1" fill="#9a8a30"/>
  <rect x="14" y="21" width="20" height="1" fill="#9a8a30"/>
  <rect x="14" y="22" width="20" height="1" fill="#9a8a30"/>
  <rect x="13" y="23" width="22" height="1" fill="#9a8a30"/>
  <rect x="13" y="24" width="22" height="1" fill="#9a8a30"/>
  <rect x="13" y="25" width="22" height="1" fill="#9a8a30"/>
  <rect x="13" y="26" width="22" height="1" fill="#9a8a30"/>
  <rect x="12" y="27" width="24" height="1" fill="#9a8a30"/>
  <rect x="13" y="28" width="22" height="1" fill="#9a8a30"/>
  <rect x="13" y="29" width="22" height="1" fill="#9a8a30"/>
  <rect x="13" y="30" width="22" height="1" fill="#9a8a30"/>
  <rect x="13" y="31" width="22" height="1" fill="#9a8a30"/>
  <rect x="14" y="32" width="20" height="1" fill="#9a8a30"/>
  <rect x="14" y="33" width="20" height="1" fill="#9a8a30"/>
  <rect x="15" y="34" width="18" height="1" fill="#9a8a30"/>
  <rect x="16" y="35" width="16" height="1" fill="#9a8a30"/>
  <rect x="17" y="36" width="14" height="1" fill="#9a8a30"/>
  <rect x="18" y="37" width="12" height="1" fill="#9a8a30"/>
  <rect x="20" y="38" width="8" height="1" fill="#9a8a30"/>
  <rect x="20" y="17" width="8" height="1" fill="#d6c14a"/>
  <rect x="18" y="18" width="12" height="1" fill="#d6c14a"/>
  <rect x="17" y="19" width="14" height="1" fill="#d6c14a"/>
  <rect x="16" y="20" width="16" height="1" fill="#d6c14a"/>
  <rect x="15" y="21" width="18" height="1" fill="#d6c14a"/>
  <rect x="15" y="22" width="18" height="1" fill="#d6c14a"/>
  <rect x="14" y="23" width="20" height="1" fill="#d6c14a"/>
  <rect x="14" y="24" width="20" height="1" fill="#d6c14a"/>
  <rect x="14" y="25" width="20" height="1" fill="#d6c14a"/>
  <rect x="14" y="26" width="20" height="1" fill="#d6c14a"/>
  <rect x="13" y="27" width="22" height="1" fill="#d6c14a"/>
  <rect x="14" y="28" width="20" height="1" fill="#d6c14a"/>
  <rect x="14" y="29" width="20" height="1" fill="#d6c14a"/>
  <rect x="14" y="30" width="20" height="1" fill="#d6c14a"/>
  <rect x="14" y="31" width="20" height="1" fill="#d6c14a"/>
  <rect x="15" y="32" width="18" height="1" fill="#d6c14a"/>
  <rect x="15" y="33" width="18" height="1" fill="#d6c14a"/>
  <rect x="16" y="34" width="16" height="1" fill="#d6c14a"/>
  <rect x="17" y="35" width="14" height="1" fill="#d6c14a"/>
  <rect x="18" y="36" width="12" height="1" fill="#d6c14a"/>
  <rect x="20" y="37" width="8" height="1" fill="#d6c14a"/>
  <rect x="21" y="28" width="6" height="1" fill="#f0e49a"/>
  <rect x="20" y="29" width="8" height="1" fill="#f0e49a"/>
  <rect x="19" y="30" width="10" height="1" fill="#f0e49a"/>
  <rect x="19" y="31" width="10" height="1" fill="#f0e49a"/>
  <rect x="19" y="32" width="10" height="1" fill="#f0e49a"/>
  <rect x="18" y="33" width="12" height="1" fill="#f0e49a"/>
  <rect x="19" y="34" width="10" height="1" fill="#f0e49a"/>
  <rect x="19" y="35" width="10" height="1" fill="#f0e49a"/>
  <rect x="19" y="36" width="10" height="1" fill="#f0e49a"/>
  <rect x="20" y="37" width="8" height="1" fill="#f0e49a"/>
  <rect x="21" y="38" width="6" height="1" fill="#f0e49a"/>
  <rect x="19" y="23" width="2" height="3" fill="#f2f4f8"/>
  <rect x="19" y="24" width="1" height="1" fill="#1b2233"/>
  <rect x="27" y="23" width="2" height="3" fill="#f2f4f8"/>
  <rect x="27" y="24" width="1" height="1" fill="#1b2233"/>
  <rect x="23" y="30" width="3" height="1" fill="#9a8a30"/>
  <rect x="24" y="28" width="2" height="1" fill="#f0e49a"/>
  <rect x="22" y="29" width="2" height="1" fill="#f0e49a"/>
  <rect x="24" y="30" width="2" height="1" fill="#f0e49a"/>
</svg>
